<svg t="1672922535001" class="icon" viewBox="0 0 1024 1024" version="1.1" xmlns="http://www.w3.org/2000/svg" p-id="2461" width="200" height="200"><path d="M862.033761 910.375872H161.966239A161.332433 161.332433 0 0 1 0.633806 749.043439V161.332433A161.332433 161.332433 0 0 1 161.966239 0h700.067522a161.332433 161.332433 0 0 1 161.332433 161.332433v587.711006a161.332433 161.332433 0 0 1-161.332433 161.332433zM161.966239 46.094981A115.237452 115.237452 0 0 0 46.728787 161.332433v587.711006a115.237452 115.237452 0 0 0 115.237452 115.237452h700.067522a115.237452 115.237452 0 0 0 115.237452-115.237452V161.332433a115.237452 115.237452 0 0 0-115.237452-115.237452zM984.18546 1024H39.81454a23.04749 23.04749 0 0 1 0-46.094981h944.947108a23.04749 23.04749 0 0 1 0 46.094981z" fill="#3A77D9" p-id="2462"></path><path d="M740.343011 618.248931H254.156201a23.04749 23.04749 0 1 1 0-46.094981h486.18681a23.04749 23.04749 0 0 1 0 46.094981zM231.10871 315.174432h532.397029v149.578213H231.10871z" fill="#3A77D9" p-id="2463"></path></svg>